<mxfile host="app.diagrams.net" modified="2021-02-01T08:39:10.452Z" agent="5.0 (Windows NT 10.0; Win64; x64) AppleWebKit/537.36 (KHTML, like Gecko) Chrome/88.0.4324.104 Safari/537.36" etag="L87nRBZkSW_f3kq91V6G" version="14.2.9" type="github">
  <diagram id="OZs2qPZD1lCQeIRRQxy_" name="Page-1">
    <mxGraphModel dx="868" dy="409" grid="1" gridSize="10" guides="1" tooltips="1" connect="1" arrows="1" fold="1" page="1" pageScale="1" pageWidth="827" pageHeight="1169" math="0" shadow="0">
      <root>
        <mxCell id="0" />
        <mxCell id="1" parent="0" />
        <mxCell id="2kbLX3eIMkflyjdoKBKz-8" value="" style="edgeStyle=orthogonalEdgeStyle;rounded=0;orthogonalLoop=1;jettySize=auto;html=1;" parent="1" source="2kbLX3eIMkflyjdoKBKz-1" target="2kbLX3eIMkflyjdoKBKz-3" edge="1">
          <mxGeometry relative="1" as="geometry" />
        </mxCell>
        <mxCell id="2kbLX3eIMkflyjdoKBKz-1" value="PMS" style="rounded=0;whiteSpace=wrap;html=1;" parent="1" vertex="1">
          <mxGeometry x="200" y="30" width="120" height="60" as="geometry" />
        </mxCell>
        <mxCell id="2kbLX3eIMkflyjdoKBKz-7" value="" style="edgeStyle=orthogonalEdgeStyle;rounded=0;orthogonalLoop=1;jettySize=auto;html=1;" parent="1" source="2kbLX3eIMkflyjdoKBKz-3" target="2kbLX3eIMkflyjdoKBKz-4" edge="1">
          <mxGeometry relative="1" as="geometry" />
        </mxCell>
        <mxCell id="2kbLX3eIMkflyjdoKBKz-3" value="DisplayPowerController&lt;br&gt;" style="rounded=0;whiteSpace=wrap;html=1;" parent="1" vertex="1">
          <mxGeometry x="200" y="110" width="120" height="60" as="geometry" />
        </mxCell>
        <mxCell id="2kbLX3eIMkflyjdoKBKz-10" value="" style="edgeStyle=orthogonalEdgeStyle;rounded=0;orthogonalLoop=1;jettySize=auto;html=1;" parent="1" source="2kbLX3eIMkflyjdoKBKz-4" target="2kbLX3eIMkflyjdoKBKz-9" edge="1">
          <mxGeometry relative="1" as="geometry" />
        </mxCell>
        <mxCell id="2kbLX3eIMkflyjdoKBKz-4" value="DisplayPowerState" style="rounded=0;whiteSpace=wrap;html=1;" parent="1" vertex="1">
          <mxGeometry x="200" y="190" width="120" height="60" as="geometry" />
        </mxCell>
        <mxCell id="sqrBYPML2mHzkbm2CdWW-1" style="edgeStyle=orthogonalEdgeStyle;rounded=0;orthogonalLoop=1;jettySize=auto;html=1;entryX=0;entryY=0.25;entryDx=0;entryDy=0;" edge="1" parent="1" source="2kbLX3eIMkflyjdoKBKz-9" target="2kbLX3eIMkflyjdoKBKz-11">
          <mxGeometry relative="1" as="geometry" />
        </mxCell>
        <mxCell id="2kbLX3eIMkflyjdoKBKz-9" value="DisplayPowerState" style="rounded=0;whiteSpace=wrap;html=1;" parent="1" vertex="1">
          <mxGeometry x="200" y="280" width="120" height="60" as="geometry" />
        </mxCell>
        <mxCell id="2kbLX3eIMkflyjdoKBKz-13" value="" style="edgeStyle=orthogonalEdgeStyle;rounded=0;orthogonalLoop=1;jettySize=auto;html=1;" parent="1" source="2kbLX3eIMkflyjdoKBKz-11" target="2kbLX3eIMkflyjdoKBKz-12" edge="1">
          <mxGeometry relative="1" as="geometry" />
        </mxCell>
        <mxCell id="2kbLX3eIMkflyjdoKBKz-11" value="SurfaceController" style="rounded=0;whiteSpace=wrap;html=1;" parent="1" vertex="1">
          <mxGeometry x="490" y="80" width="120" height="60" as="geometry" />
        </mxCell>
        <mxCell id="2kbLX3eIMkflyjdoKBKz-15" value="" style="edgeStyle=orthogonalEdgeStyle;rounded=0;orthogonalLoop=1;jettySize=auto;html=1;" parent="1" source="2kbLX3eIMkflyjdoKBKz-12" target="2kbLX3eIMkflyjdoKBKz-14" edge="1">
          <mxGeometry relative="1" as="geometry" />
        </mxCell>
        <mxCell id="2kbLX3eIMkflyjdoKBKz-12" value="HWC&lt;br&gt;" style="rounded=0;whiteSpace=wrap;html=1;" parent="1" vertex="1">
          <mxGeometry x="490" y="180" width="120" height="50" as="geometry" />
        </mxCell>
        <mxCell id="2kbLX3eIMkflyjdoKBKz-14" value="crtc" style="rounded=0;whiteSpace=wrap;html=1;" parent="1" vertex="1">
          <mxGeometry x="490" y="290" width="120" height="50" as="geometry" />
        </mxCell>
      </root>
    </mxGraphModel>
  </diagram>
</mxfile>
